<?xml version="1.0" encoding="utf-8"?>
<!-- Generated by Mocodo 4.2.12 -->
<svg width="413" height="558" viewBox="0 0 413 558" xmlns="http://www.w3.org/2000/svg">
<rect x="0" y="0" width="413" height="558" fill="#f7f7f7" stroke="none" stroke-width="0"/>

<!-- Association ADOPTER -->
<g class="page_0_ba2a3025 diagram_page" visibility="visible">
	<line x1="207" y1="296" x2="207" y2="102" stroke="#5aae61" stroke-width="2"/>
	<line x1="69" y1="102" x2="207" y2="102" stroke="#5aae61" stroke-width="2"/>
	<g>
		<path d="M229 77 a14 14 90 0 1 14 14 V102 h-72 V91 a14 14 90 0 1 14 -14" fill="#a6dba0" stroke="#a6dba0" stroke-width="0"/>
		<path d="M243 102 v11 a14 14 90 0 1 -14 14 H185 a14 14 90 0 1 -14 -14 V102 H72" fill="#d9f0d3" stroke="#d9f0d3" stroke-width="0"/>
		<rect x="171" y="77" width="72" height="50" fill="none" rx="14" stroke="#5aae61" stroke-width="2"/>
		<line x1="171" y1="102" x2="243" y2="102" stroke="#5aae61" stroke-width="1"/>
		<text x="178" y="94.75" fill="#000000" font-family="Verdana" font-size="12">ADOPTER</text>
	</g>
	<text x="212" y="212" fill="#762a83" font-family="Verdana" font-size="12">0,N</text>
	<text x="134" y="119" fill="#762a83" font-family="Verdana" font-size="12">1,N</text>
</g>

<!-- Association SUPERVISER -->
<g class="page_0_ba2a3025 diagram_page" visibility="visible">
	<line x1="69" y1="102" x2="69" y2="296" stroke="#5aae61" stroke-width="2"/>
	<line x1="69" y1="473" x2="69" y2="296" stroke="#5aae61" stroke-width="2"/>
	<g>
		<path d="M102 271 a14 14 90 0 1 14 14 V296 h-94 V285 a14 14 90 0 1 14 -14" fill="#a6dba0" stroke="#a6dba0" stroke-width="0"/>
		<path d="M116 296 v11 a14 14 90 0 1 -14 14 H36 a14 14 90 0 1 -14 -14 V296 H94" fill="#d9f0d3" stroke="#d9f0d3" stroke-width="0"/>
		<rect x="22" y="271" width="94" height="50" fill="none" rx="14" stroke="#5aae61" stroke-width="2"/>
		<line x1="22" y1="296" x2="116" y2="296" stroke="#5aae61" stroke-width="1"/>
		<text x="30" y="288.75" fill="#000000" font-family="Verdana" font-size="12">SUPERVISER</text>
	</g>
	<text x="74" y="212" fill="#762a83" font-family="Verdana" font-size="12">0,N</text>
	<text x="74" y="389" fill="#762a83" font-family="Verdana" font-size="12">1,1</text>
</g>

<!-- Association ACCUEILLIR -->
<g class="page_0_ba2a3025 diagram_page" visibility="visible">
	<line x1="207" y1="296" x2="342" y2="296" stroke="#5aae61" stroke-width="2"/>
	<line x1="342" y1="102" x2="342" y2="296" stroke="#5aae61" stroke-width="2"/>
	<g>
		<path d="M372 271 a14 14 90 0 1 14 14 V296 h-88 V285 a14 14 90 0 1 14 -14" fill="#a6dba0" stroke="#a6dba0" stroke-width="0"/>
		<path d="M386 296 v11 a14 14 90 0 1 -14 14 H312 a14 14 90 0 1 -14 -14 V296 H88" fill="#d9f0d3" stroke="#d9f0d3" stroke-width="0"/>
		<rect x="298" y="271" width="88" height="50" fill="none" rx="14" stroke="#5aae61" stroke-width="2"/>
		<line x1="298" y1="296" x2="386" y2="296" stroke="#5aae61" stroke-width="1"/>
		<text x="305" y="288.75" fill="#000000" font-family="Verdana" font-size="12">ACCUEILLIR</text>
	</g>
	<text x="271" y="313" fill="#762a83" font-family="Verdana" font-size="12">1,1</text>
	<text x="347" y="187" fill="#762a83" font-family="Verdana" font-size="12">0,N</text>
</g>

<!-- Association GERER -->
<g class="page_0_ba2a3025 diagram_page" visibility="visible">
	<line x1="69" y1="473" x2="207" y2="473" stroke="#5aae61" stroke-width="2"/>
	<line x1="207" y1="296" x2="207" y2="473" stroke="#5aae61" stroke-width="2"/>
	<g>
		<path d="M221 448 a14 14 90 0 1 14 14 V473 h-56 V462 a14 14 90 0 1 14 -14" fill="#a6dba0" stroke="#a6dba0" stroke-width="0"/>
		<path d="M235 473 v11 a14 14 90 0 1 -14 14 H193 a14 14 90 0 1 -14 -14 V473 H56" fill="#d9f0d3" stroke="#d9f0d3" stroke-width="0"/>
		<rect x="179" y="448" width="56" height="50" fill="none" rx="14" stroke="#5aae61" stroke-width="2"/>
		<line x1="179" y1="473" x2="235" y2="473" stroke="#5aae61" stroke-width="1"/>
		<text x="186" y="465.75" fill="#000000" font-family="Verdana" font-size="12">GÉRER</text>
	</g>
	<text x="127" y="490" fill="#762a83" font-family="Verdana" font-size="12" onmouseover="show_ba2a3025(evt,'responsable')" onmouseout="hide_ba2a3025(evt)" style="cursor: pointer;">0,N</text>
	<text x="212" y="389" fill="#762a83" font-family="Verdana" font-size="12">1,1</text>
</g>

<!-- Entity ADOPTION -->
<g class="page_0_ba2a3025 diagram_page" visibility="visible">
	<g>
		<rect x="9" y="9" width="120" height="25" fill="#c2a5cf" stroke="none" stroke-width="0" opacity="1"/>
		<rect x="9" y="34" width="120" height="161" fill="#e7d4e8" stroke="none" stroke-width="0" opacity="1"/>
		<rect x="9" y="9" width="120" height="186" fill="none" stroke="#9970ab" stroke-width="2" opacity="1"/>
		<line x1="9" y1="34" x2="129" y2="34" stroke="#9970ab" stroke-width="1"/>
	</g>
	<text x="36" y="26.75" fill="#000000" font-family="Verdana" font-size="12">ADOPTION</text>
	<text x="14" y="51.8" fill="#000000" font-family="Verdana" font-size="12">adoption_id</text>
	<line x1="14" y1="54" x2="86" y2="54" stroke="#000000" stroke-width="1"/>
	<text x="14" y="68.8" fill="#000000" font-family="Verdana" font-size="12">nom_adoptant</text>
	<text x="14" y="85.8" fill="#000000" font-family="Verdana" font-size="12">prenom_adoptant</text>
	<text x="14" y="102.8" fill="#000000" font-family="Verdana" font-size="12">email_adoptant</text>
	<text x="14" y="119.8" fill="#000000" font-family="Verdana" font-size="12">tel_adoptant</text>
	<text x="14" y="136.8" fill="#000000" font-family="Verdana" font-size="12">date_adoption</text>
	<text x="14" y="153.8" fill="#000000" font-family="Verdana" font-size="12">statut_adoption</text>
	<text x="14" y="170.8" fill="#000000" font-family="Verdana" font-size="12">chat_id</text>
	<text x="14" y="187.8" fill="#000000" font-family="Verdana" font-size="12">gestionnaire_id</text>
</g>

<!-- Entity FAMILLE_ACCUEIL -->
<g class="page_0_ba2a3025 diagram_page" visibility="visible">
	<g>
		<rect x="280" y="34" width="124" height="25" fill="#c2a5cf" stroke="none" stroke-width="0" opacity="1"/>
		<rect x="280" y="59" width="124" height="111" fill="#e7d4e8" stroke="none" stroke-width="0" opacity="1"/>
		<rect x="280" y="34" width="124" height="136" fill="none" stroke="#9970ab" stroke-width="2" opacity="1"/>
		<line x1="280" y1="59" x2="404" y2="59" stroke="#9970ab" stroke-width="1"/>
	</g>
	<text x="286" y="51.75" fill="#000000" font-family="Verdana" font-size="12">FAMILLE_ACCUEIL</text>
	<text x="285" y="76.8" fill="#000000" font-family="Verdana" font-size="12">famille_accueil_id</text>
	<line x1="285" y1="79" x2="393" y2="79" stroke="#000000" stroke-width="1"/>
	<text x="285" y="93.8" fill="#000000" font-family="Verdana" font-size="12">nom</text>
	<text x="285" y="110.8" fill="#000000" font-family="Verdana" font-size="12">prénom</text>
	<text x="285" y="127.8" fill="#000000" font-family="Verdana" font-size="12">tel</text>
	<text x="285" y="144.8" fill="#000000" font-family="Verdana" font-size="12">email</text>
	<text x="285" y="161.8" fill="#000000" font-family="Verdana" font-size="12">ville</text>
</g>

<!-- Entity CHAT -->
<g class="page_0_ba2a3025 diagram_page" visibility="visible">
	<g>
		<rect x="148" y="220" width="118" height="25" fill="#c2a5cf" stroke="none" stroke-width="0" opacity="1"/>
		<rect x="148" y="245" width="118" height="127" fill="#e7d4e8" stroke="none" stroke-width="0" opacity="1"/>
		<rect x="148" y="220" width="118" height="152" fill="none" stroke="#9970ab" stroke-width="2" opacity="1"/>
		<line x1="148" y1="245" x2="266" y2="245" stroke="#9970ab" stroke-width="1"/>
	</g>
	<text x="190" y="237.75" fill="#000000" font-family="Verdana" font-size="12">CHAT</text>
	<text x="153" y="262.8" fill="#000000" font-family="Verdana" font-size="12">chat_id</text>
	<line x1="153" y1="265" x2="198" y2="265" stroke="#000000" stroke-width="1"/>
	<text x="153" y="279.8" fill="#000000" font-family="Verdana" font-size="12">prénom</text>
	<text x="153" y="296.8" fill="#000000" font-family="Verdana" font-size="12">age</text>
	<text x="153" y="313.8" fill="#000000" font-family="Verdana" font-size="12">description</text>
	<text x="153" y="330.8" fill="#000000" font-family="Verdana" font-size="12">statut_adoption</text>
	<text x="153" y="347.8" fill="#000000" font-family="Verdana" font-size="12">gestionnaire_id</text>
	<text x="153" y="364.8" fill="#000000" font-family="Verdana" font-size="12">famille_accueil_id</text>
</g>

<!-- Entity GESTIONNAIRE -->
<g class="page_0_ba2a3025 diagram_page" visibility="visible">
	<g>
		<rect x="16" y="397" width="106" height="25" fill="#c2a5cf" stroke="none" stroke-width="0" opacity="1"/>
		<rect x="16" y="422" width="106" height="127" fill="#e7d4e8" stroke="none" stroke-width="0" opacity="1"/>
		<rect x="16" y="397" width="106" height="152" fill="none" stroke="#9970ab" stroke-width="2" opacity="1"/>
		<line x1="16" y1="422" x2="122" y2="422" stroke="#9970ab" stroke-width="1"/>
	</g>
	<text x="22" y="414.75" fill="#000000" font-family="Verdana" font-size="12">GESTIONNAIRE</text>
	<text x="21" y="439.8" fill="#000000" font-family="Verdana" font-size="12">gestionnaire_id</text>
	<line x1="21" y1="442" x2="115" y2="442" stroke="#000000" stroke-width="1"/>
	<text x="21" y="456.8" fill="#000000" font-family="Verdana" font-size="12">rôle</text>
	<text x="21" y="473.8" fill="#000000" font-family="Verdana" font-size="12">nom</text>
	<text x="21" y="490.8" fill="#000000" font-family="Verdana" font-size="12">prénom</text>
	<text x="21" y="507.8" fill="#000000" font-family="Verdana" font-size="12">tel</text>
	<text x="21" y="524.8" fill="#000000" font-family="Verdana" font-size="12">email</text>
	<text x="21" y="541.8" fill="#000000" font-family="Verdana" font-size="12">mot_de_passe</text>
</g>

<!-- Notes -->
<script type="text/ecmascript">
<![CDATA[
	function show_ba2a3025(evt, text) {
		var pos = (evt.target.getAttribute("y") < 513) ? "bottom" : "top";
		var note = document.getElementById(pos + "_note_ba2a3025");
		note.textContent = text;
		note.setAttributeNS(null, "visibility", "visible");
		document.getElementById(pos + "_overlay_ba2a3025").setAttributeNS(null, "visibility", "visible");
	}
	function hide_ba2a3025(evt) {
		document.getElementById("top_note_ba2a3025").setAttributeNS(null, "visibility", "hidden");
		document.getElementById("top_overlay_ba2a3025").setAttributeNS(null, "visibility", "hidden");
		document.getElementById("bottom_note_ba2a3025").setAttributeNS(null, "visibility", "hidden");
		document.getElementById("bottom_overlay_ba2a3025").setAttributeNS(null, "visibility", "hidden");
	}
]]>
</script>
<rect id="top_overlay_ba2a3025" x="0" y="0" width="100%" height="40" fill="#1b7837" stroke-width="0" opacity="0.9" visibility="hidden"/>
<text id="top_note_ba2a3025" text-anchor="middle" x="206" y="24" fill="#f7f7f7" font-family="Verdana" font-size="14" visibility="hidden"></text>
<rect id="bottom_overlay_ba2a3025" x="0" y="518" width="100%" height="40" fill="#1b7837" stroke-width="0" opacity="0.9" visibility="hidden"/>
<text id="bottom_note_ba2a3025" text-anchor="middle" x="206" y="542" fill="#f7f7f7" font-family="Verdana" font-size="14" visibility="hidden"></text>
</svg>